Coordinates
version=1
nRows=17
nColumns=36
inDegrees=yes

Units are S.I. units (second, meters, Newtons, ...)
If the header above contains a line with 'inDegrees', this indicates whether rotational values are in degrees (yes) or radians (no).

endheader
time	pelvis_tilt	pelvis_list	pelvis_rotation	pelvis_tx	pelvis_ty	pelvis_tz	hip_flexion_r	hip_adduction_r	hip_rotation_r	knee_angle_r	knee_angle_r_beta	ankle_angle_r	subtalar_angle_r	mtp_angle_r	hip_flexion_l	hip_adduction_l	hip_rotation_l	knee_angle_l	knee_angle_l_beta	ankle_angle_l	subtalar_angle_l	mtp_angle_l	lumbar_extension	lumbar_bending	lumbar_rotation	arm_flex_r	arm_add_r	arm_rot_r	elbow_flex_r	pro_sup_r	arm_flex_l	arm_add_l	arm_rot_l	elbow_flex_l	pro_sup_l
      7.21666670	    -10.12184268	     -5.66686691	    359.57949330	     -0.30822106	      1.00168576	      1.02268612	      7.29610396	      4.07665256	     -2.13008595	      4.45301914	      0.07771985	      4.81864553	     -7.81571046	     -7.49999987	     19.70194473	      5.58719234	     17.40844575	     57.25217857	      0.99923902	     -3.67225873	    -19.73042275	     -7.49999987	    -10.61688309	      0.54923865	     12.51170344	      1.48381444	      6.53356874	    -19.96613003	     26.56149537	    100.27648841	     21.19884072	      0.76992378	     22.35653189	     22.20950190	     93.00337260
      7.23333330	    -10.44001191	     -5.17182901	    359.60357544	     -0.29418359	      1.00181629	      1.02655185	      6.69128373	      4.04253622	     -2.00777102	      4.54790954	      0.07937600	      4.93696765	     -7.81688962	     -7.49999987	     22.52769224	      6.34313353	     16.07150943	     56.14638339	      0.97993925	     -0.75576828	    -21.36369428	     -7.49999987	    -10.53307832	     -0.74546215	     14.94915925	      2.82097549	      5.34778769	    -20.34581555	     27.12878330	     99.66471327	     21.56555771	      0.45441787	     20.29916597	     22.14377173	     91.75730254
      7.25000000	    -10.52898937	     -4.85980906	    359.59242627	     -0.28034659	      1.00106397	      1.03046739	      5.54454514	      4.08432269	     -2.03704818	      4.45901459	      0.07782449	      4.39431306	     -7.61180771	     -7.49999987	     25.08474871	      7.14852503	     15.38124606	     53.83411502	      0.93958256	      2.54476088	    -21.78286361	     -7.49999987	    -10.65008841	     -1.48555165	     16.14793959	      3.99687992	      4.32922391	    -21.68969369	     29.13918272	    104.25302756	     20.97836761	      0.23664460	     13.38264979	     23.35777451	     95.29380494
      7.26666670	    -10.72647804	     -4.58075640	    359.57966146	     -0.26603593	      0.99992447	      1.03403429	      3.99255519	      3.84982819	     -1.52008923	      3.54559051	      0.06188223	      3.58912555	     -7.44336842	     -7.49999987	     27.94890731	      7.98793691	     13.89813468	     50.55435226	      0.88233990	      4.33250351	    -21.46833070	     -7.49999987	    -10.67194936	     -1.99180276	     17.61209744	      4.82660394	      3.02093660	    -21.43616185	     31.56996117	    103.45202092	     21.06445163	     -0.03630438	     11.63801737	     23.62069783	     94.62132563
      7.28333330	    -11.14934601	     -3.98625822	    359.54704316	     -0.25043442	      0.99736419	      1.03729481	      2.42569144	      3.42723107	     -1.96278353	      2.92049453	      0.05097225	      2.54859672	     -6.42701433	     -7.49999987	     29.97540736	      8.70921837	     12.90730641	     46.57869024	      0.81295151	      4.49028416	    -21.23958124	     -7.49999987	     -9.93923829	     -2.69777147	     18.81732355	      5.05288295	      1.74937275	    -21.42918244	     34.58183244	    103.22836070	     20.79133607	     -0.52174294	      9.84614495	     24.06837015	     94.23501270
      7.30000000	    -11.76431002	     -3.93446746	    359.47881955	     -0.23603042	      0.99388492	      1.04123924	      1.96745275	      3.58003237	     -2.43967853	      2.34682085	      0.04095975	      2.23488933	     -6.60041066	     -7.49999987	     31.68266739	      8.59930246	     12.20590059	     42.28654221	      0.73803939	      4.16827242	    -20.47650007	     -7.49999987	     -9.35481811	     -2.62300003	     19.95831493	      5.12832309	      0.72657646	    -22.59890629	     38.17003188	    104.57650861	     20.30433629	     -0.85307425	      7.70126119	     24.99033965	     95.27059635
      7.31666670	    -12.24128450	     -3.57722250	    359.44298895	     -0.21876338	      0.99150287	      1.04534280	      1.18267766	      3.31573808	     -3.38931351	      1.26407066	      0.02206219	      1.95746409	     -5.93234596	     -7.49999987	     32.74391028	      8.62014772	     11.91345787	     37.28038852	      0.65066553	      2.26217382	    -20.62906286	     -7.49999987	     -8.53059640	     -2.85014389	     20.56218641	      5.30141326	     -0.26879846	    -22.54997595	     40.13808332	    105.26103062	     19.60936442	     -1.66376917	      7.02548402	     25.45584428	     95.58437501
      7.33333330	    -12.94674118	     -3.29384881	    359.37257363	     -0.20294621	      0.98936082	      1.04905147	      1.17780447	      3.05702501	     -4.59218609	      0.78896789	      0.01377009	      2.40006847	     -5.51297595	     -7.49999987	     33.93850278	      8.38547181	     11.62724425	     31.75791328	      0.55428015	     -0.95455421	    -20.57121449	     -7.49999987	     -7.70970385	     -2.95211513	     21.01100828	      5.37927141	     -1.16787821	    -22.43806436	     41.27470133	    105.02852376	     19.05473471	     -2.48873741	      7.00273796	     25.39147335	     94.50625904
      7.35000000	    -13.49728097	     -2.72158261	    359.37513543	     -0.18796848	      0.98765678	      1.05186099	      0.81005510	      2.73732396	     -5.82962875	      0.50239299	      0.00876841	      4.61526924	     -4.13310802	     -7.49999987	     34.98371519	      8.35078836	     10.94166016	     25.03953585	      0.43702234	     -6.34254718	    -20.51839155	     -7.49999987	     -7.04382591	     -3.46754648	     21.42891723	      5.63578612	     -1.78332014	    -23.23538814	     41.22579246	    105.91196621	     18.86452502	     -3.06901031	      6.26693376	     24.79710291	     95.20501162
      7.36666670	    -13.79760268	     -2.48575584	    359.39456341	     -0.17259308	      0.98518833	      1.05488573	      0.03575028	      2.81610086	     -7.09074478	      0.37510004	      0.00654673	      7.90365672	     -2.35172575	     -7.49999987	     35.35951802	      7.95431839	      9.22299908	     17.78667465	      0.31043604	    -10.98429070	    -18.80890302	     -7.49999987	     -6.71886417	     -3.67784352	     21.86131126	      5.84653467	     -2.48029514	    -23.64500043	     40.82266345	    105.04904401	     18.64598498	     -3.50785430	      5.30625818	     24.33991386	     93.99441977
      7.38333330	    -13.84513337	     -2.55418786	    359.35811733	     -0.15648229	      0.98045432	      1.05878540	     -1.23601918	      3.41227299	     -7.36281482	      0.33350623	      0.00582078	     10.55833731	      0.40575998	     -7.49999987	     35.38302213	      7.35260981	      7.34367634	     10.95916871	      0.19127358	    -13.83537492	    -15.18039300	     -7.49999987	     -6.59738572	     -3.59472901	     22.36024562	      6.10123103	     -3.25825850	    -23.49746802	     40.09796677	    103.28092835	     18.52482775	     -3.85233712	      4.44439737	     23.71763923	     92.39680188
      7.40000000	    -13.63355477	     -2.92585557	    359.27708180	     -0.13686860	      0.97550145	      1.06347561	     -2.97938588	      4.24825169	     -7.13104799	      0.34307527	      0.00598779	     12.86254781	      2.29319223	     -7.49999987	     34.97377963	      6.66115153	      4.67641568	      5.22296222	      0.09115789	    -14.32431223	    -10.15761309	     -7.49999987	     -6.58580565	     -3.12755828	     22.72321286	      6.15270200	     -3.77400493	    -23.95169019	     39.88215827	    103.96600781	     18.05420681	     -4.30355331	      3.59728440	     23.16023256	     92.20680744
      7.41666670	    -13.23600401	     -3.13950500	    359.13673342	     -0.11745956	      0.97128422	      1.06806608	     -5.12727107	      4.82819550	     -7.03619977	      0.37664651	      0.00657372	     14.67087394	      4.02833602	     -7.49999987	     34.64334208	      6.27877308	      1.75604265	      1.13211451	      0.01975913	    -12.77379584	     -4.53167750	     -7.49999987	     -6.66066520	     -2.86176714	     22.77286680	      6.50479679	     -4.09368622	    -23.98537399	     39.56777010	    103.87706322	     17.36834632	     -4.78326353	      2.14404224	     22.80857080	     91.66223413
      7.43333330	    -13.34037484	     -3.48363658	    358.95617227	     -0.10078053	      0.96747502	      1.07113372	     -6.49224431	      5.44338930	     -6.59866547	      0.44076739	      0.00769284	     15.86288892	      4.61801399	     -7.49999987	     35.92921083	      5.85458846	     -1.09075034	      0.27818407	      0.00485523	     -9.46222641	      0.77205189	     -7.49999987	     -6.23833267	     -2.43132855	     22.48677102	      7.25390624	     -4.47153848	    -23.43689601	     38.71140590	    102.58166937	     16.71569485	     -5.13156347	      0.71116631	     22.03541326	     90.22623010
      7.45000000	    -13.01198973	     -3.36688810	    358.76784928	     -0.08326701	      0.96484973	      1.07564594	     -8.26134325	      5.46115461	     -6.66823353	      0.53314183	      0.00930508	     16.36420928	      5.22703849	     -7.49999987	     36.44735452	      5.76067639	     -3.44801884	      0.17375411	      0.00303258	     -6.91046061	      4.47782884	     -7.49999987	     -6.50070245	     -2.55874672	     21.37032926	      8.77593598	     -4.48045567	    -21.95013215	     37.80164068	    102.38083733	     15.67753650	     -5.86289684	     -0.97246818	     21.97058781	     89.48451265
      7.46666670	    -12.50459934	     -2.56781675	    358.36536107	     -0.06522128	      0.96295029	      1.07868222	     -9.95040738	      4.61874413	     -6.53796660	      0.73549800	      0.01283686	     16.26307813	      5.29317090	     -7.49999987	     35.86840375	      6.12851734	     -5.03138298	      0.16183888	      0.00282462	     -6.08833007	      5.62004779	     -7.49999987	     -6.99934432	     -3.58744253	     20.93222932	      9.94181623	     -4.15773882	    -21.74238311	     37.07957558	    101.24032119	     15.13939657	     -6.45066565	     -1.73349597	     21.65989375	     88.72072021
      7.48333330	    -11.90998620	     -1.38124349	    357.58527789	     -0.04835988	      0.96139905	      1.07992038	    -11.46888405	      3.09403646	     -6.81398396	      1.25438892	      0.02189322	     15.87895602	      6.22518372	     -7.49999987	     34.61341169	      6.78100229	     -5.93982113	      0.19594511	      0.00341989	     -6.78017486	      4.48205003	     -7.49999987	     -7.47279200	     -4.96518895	     20.26776329	     11.73777717	     -3.85754014	    -20.69632997	     34.84377158	    101.35829123	     14.53217289	     -6.82556258	     -3.67494792	     20.39309539	     88.44755700
